<mxfile host="app.diagrams.net" agent="Mozilla/5.0 (Windows NT 10.0; Win64; x64) AppleWebKit/537.36 (KHTML, like Gecko) Chrome/129.0.0.0 Safari/537.36" version="24.7.17" pages="2">
  <diagram id="xnG5i2iVCZmVdskGmkRU" name="Halaman-1">
    <mxGraphModel dx="3000" dy="1591" grid="1" gridSize="10" guides="1" tooltips="1" connect="1" arrows="1" fold="1" page="1" pageScale="1" pageWidth="827" pageHeight="1169" math="0" shadow="0">
      <root>
        <mxCell id="0" />
        <mxCell id="1" parent="0" />
        <mxCell id="QyO6l9I_pkMzvWu4JdCu-4" style="edgeStyle=orthogonalEdgeStyle;rounded=0;orthogonalLoop=1;jettySize=auto;html=1;exitX=1;exitY=0.25;exitDx=0;exitDy=0;entryX=0;entryY=0.25;entryDx=0;entryDy=0;" parent="1" source="QyO6l9I_pkMzvWu4JdCu-1" target="QyO6l9I_pkMzvWu4JdCu-2" edge="1">
          <mxGeometry relative="1" as="geometry" />
        </mxCell>
        <mxCell id="QyO6l9I_pkMzvWu4JdCu-1" value="User" style="rounded=0;whiteSpace=wrap;html=1;" parent="1" vertex="1">
          <mxGeometry x="40" y="80" width="120" height="60" as="geometry" />
        </mxCell>
        <mxCell id="QyO6l9I_pkMzvWu4JdCu-5" style="edgeStyle=orthogonalEdgeStyle;rounded=0;orthogonalLoop=1;jettySize=auto;html=1;exitX=0;exitY=0.75;exitDx=0;exitDy=0;entryX=1;entryY=0.75;entryDx=0;entryDy=0;" parent="1" source="QyO6l9I_pkMzvWu4JdCu-2" target="QyO6l9I_pkMzvWu4JdCu-1" edge="1">
          <mxGeometry relative="1" as="geometry" />
        </mxCell>
        <mxCell id="QyO6l9I_pkMzvWu4JdCu-2" value="Fitur Kategori" style="rounded=1;whiteSpace=wrap;html=1;" parent="1" vertex="1">
          <mxGeometry x="330" y="80" width="120" height="60" as="geometry" />
        </mxCell>
        <mxCell id="QyO6l9I_pkMzvWu4JdCu-6" value="Pilih Menu" style="text;html=1;align=center;verticalAlign=middle;resizable=0;points=[];autosize=1;strokeColor=none;fillColor=none;" parent="1" vertex="1">
          <mxGeometry x="200" y="58" width="80" height="30" as="geometry" />
        </mxCell>
        <mxCell id="QyO6l9I_pkMzvWu4JdCu-7" value="Hasil Operasi" style="text;html=1;align=center;verticalAlign=middle;resizable=0;points=[];autosize=1;strokeColor=none;fillColor=none;" parent="1" vertex="1">
          <mxGeometry x="190" y="130" width="100" height="30" as="geometry" />
        </mxCell>
        <mxCell id="QyO6l9I_pkMzvWu4JdCu-8" value="Level 0" style="text;html=1;align=center;verticalAlign=middle;resizable=0;points=[];autosize=1;strokeColor=none;fillColor=none;" parent="1" vertex="1">
          <mxGeometry x="210" width="60" height="30" as="geometry" />
        </mxCell>
        <mxCell id="QyO6l9I_pkMzvWu4JdCu-10" value="Level 1" style="text;html=1;align=center;verticalAlign=middle;resizable=0;points=[];autosize=1;strokeColor=none;fillColor=none;" parent="1" vertex="1">
          <mxGeometry x="1444" width="60" height="30" as="geometry" />
        </mxCell>
        <mxCell id="QyO6l9I_pkMzvWu4JdCu-13" style="edgeStyle=orthogonalEdgeStyle;rounded=0;orthogonalLoop=1;jettySize=auto;html=1;entryX=0;entryY=0.5;entryDx=0;entryDy=0;" parent="1" source="QyO6l9I_pkMzvWu4JdCu-11" target="QyO6l9I_pkMzvWu4JdCu-12" edge="1">
          <mxGeometry relative="1" as="geometry" />
        </mxCell>
        <mxCell id="QyO6l9I_pkMzvWu4JdCu-11" value="User" style="rounded=0;whiteSpace=wrap;html=1;" parent="1" vertex="1">
          <mxGeometry x="860" y="83" width="120" height="60" as="geometry" />
        </mxCell>
        <mxCell id="a7UAYyi7oK2W15wxilVy-6" style="edgeStyle=orthogonalEdgeStyle;rounded=0;orthogonalLoop=1;jettySize=auto;html=1;entryX=0;entryY=0.5;entryDx=0;entryDy=0;" parent="1" source="QyO6l9I_pkMzvWu4JdCu-12" target="a7UAYyi7oK2W15wxilVy-2" edge="1">
          <mxGeometry relative="1" as="geometry" />
        </mxCell>
        <mxCell id="QyO6l9I_pkMzvWu4JdCu-12" value="Fitur Kagegori" style="rounded=1;whiteSpace=wrap;html=1;" parent="1" vertex="1">
          <mxGeometry x="1150" y="83" width="120" height="60" as="geometry" />
        </mxCell>
        <mxCell id="EtVTQAS7JojA4WmKUe1Q-6" style="edgeStyle=orthogonalEdgeStyle;rounded=0;orthogonalLoop=1;jettySize=auto;html=1;entryX=0;entryY=0.5;entryDx=0;entryDy=0;" edge="1" parent="1" source="a7UAYyi7oK2W15wxilVy-2" target="EtVTQAS7JojA4WmKUe1Q-3">
          <mxGeometry relative="1" as="geometry" />
        </mxCell>
        <mxCell id="EtVTQAS7JojA4WmKUe1Q-10" style="edgeStyle=orthogonalEdgeStyle;rounded=0;orthogonalLoop=1;jettySize=auto;html=1;entryX=0;entryY=0.5;entryDx=0;entryDy=0;" edge="1" parent="1" source="a7UAYyi7oK2W15wxilVy-2" target="EtVTQAS7JojA4WmKUe1Q-9">
          <mxGeometry relative="1" as="geometry" />
        </mxCell>
        <mxCell id="EtVTQAS7JojA4WmKUe1Q-12" style="edgeStyle=orthogonalEdgeStyle;rounded=0;orthogonalLoop=1;jettySize=auto;html=1;entryX=0;entryY=0.75;entryDx=0;entryDy=0;" edge="1" parent="1" source="a7UAYyi7oK2W15wxilVy-2" target="EtVTQAS7JojA4WmKUe1Q-11">
          <mxGeometry relative="1" as="geometry" />
        </mxCell>
        <mxCell id="EtVTQAS7JojA4WmKUe1Q-16" style="edgeStyle=orthogonalEdgeStyle;rounded=0;orthogonalLoop=1;jettySize=auto;html=1;entryX=0;entryY=0.5;entryDx=0;entryDy=0;" edge="1" parent="1" source="a7UAYyi7oK2W15wxilVy-2" target="EtVTQAS7JojA4WmKUe1Q-7">
          <mxGeometry relative="1" as="geometry" />
        </mxCell>
        <mxCell id="a7UAYyi7oK2W15wxilVy-2" value="Menu Kategori" style="rounded=1;whiteSpace=wrap;html=1;" parent="1" vertex="1">
          <mxGeometry x="1414" y="83" width="120" height="60" as="geometry" />
        </mxCell>
        <mxCell id="EtVTQAS7JojA4WmKUe1Q-15" style="edgeStyle=orthogonalEdgeStyle;rounded=0;orthogonalLoop=1;jettySize=auto;html=1;entryX=0;entryY=0.5;entryDx=0;entryDy=0;" edge="1" parent="1" source="EtVTQAS7JojA4WmKUe1Q-3" target="EtVTQAS7JojA4WmKUe1Q-14">
          <mxGeometry relative="1" as="geometry" />
        </mxCell>
        <mxCell id="EtVTQAS7JojA4WmKUe1Q-3" value="Tambah Kategori" style="rounded=1;whiteSpace=wrap;html=1;" vertex="1" parent="1">
          <mxGeometry x="1680" y="83" width="120" height="60" as="geometry" />
        </mxCell>
        <mxCell id="EtVTQAS7JojA4WmKUe1Q-19" style="edgeStyle=orthogonalEdgeStyle;rounded=0;orthogonalLoop=1;jettySize=auto;html=1;entryX=0;entryY=0.5;entryDx=0;entryDy=0;" edge="1" parent="1" source="EtVTQAS7JojA4WmKUe1Q-7" target="EtVTQAS7JojA4WmKUe1Q-17">
          <mxGeometry relative="1" as="geometry" />
        </mxCell>
        <mxCell id="EtVTQAS7JojA4WmKUe1Q-7" value="Ubah Kategori" style="rounded=1;whiteSpace=wrap;html=1;" vertex="1" parent="1">
          <mxGeometry x="1690" y="250" width="120" height="60" as="geometry" />
        </mxCell>
        <mxCell id="EtVTQAS7JojA4WmKUe1Q-22" style="edgeStyle=orthogonalEdgeStyle;rounded=0;orthogonalLoop=1;jettySize=auto;html=1;entryX=0;entryY=0.5;entryDx=0;entryDy=0;" edge="1" parent="1" source="EtVTQAS7JojA4WmKUe1Q-9" target="EtVTQAS7JojA4WmKUe1Q-21">
          <mxGeometry relative="1" as="geometry" />
        </mxCell>
        <mxCell id="EtVTQAS7JojA4WmKUe1Q-9" value="Hapus Kategori" style="rounded=1;whiteSpace=wrap;html=1;" vertex="1" parent="1">
          <mxGeometry x="1690" y="540" width="120" height="60" as="geometry" />
        </mxCell>
        <mxCell id="EtVTQAS7JojA4WmKUe1Q-24" style="edgeStyle=orthogonalEdgeStyle;rounded=0;orthogonalLoop=1;jettySize=auto;html=1;exitX=1;exitY=0.5;exitDx=0;exitDy=0;" edge="1" parent="1" source="EtVTQAS7JojA4WmKUe1Q-11" target="EtVTQAS7JojA4WmKUe1Q-23">
          <mxGeometry relative="1" as="geometry" />
        </mxCell>
        <mxCell id="EtVTQAS7JojA4WmKUe1Q-11" value="Cari Kategori" style="rounded=1;whiteSpace=wrap;html=1;" vertex="1" parent="1">
          <mxGeometry x="1690" y="830" width="120" height="60" as="geometry" />
        </mxCell>
        <mxCell id="EtVTQAS7JojA4WmKUe1Q-14" value="Nama Kategori" style="rounded=1;whiteSpace=wrap;html=1;" vertex="1" parent="1">
          <mxGeometry x="1890" y="83" width="120" height="60" as="geometry" />
        </mxCell>
        <mxCell id="EtVTQAS7JojA4WmKUe1Q-29" style="edgeStyle=orthogonalEdgeStyle;rounded=0;orthogonalLoop=1;jettySize=auto;html=1;entryX=0.5;entryY=0;entryDx=0;entryDy=0;" edge="1" parent="1" source="EtVTQAS7JojA4WmKUe1Q-17" target="EtVTQAS7JojA4WmKUe1Q-25">
          <mxGeometry relative="1" as="geometry" />
        </mxCell>
        <mxCell id="EtVTQAS7JojA4WmKUe1Q-33" style="edgeStyle=orthogonalEdgeStyle;rounded=0;orthogonalLoop=1;jettySize=auto;html=1;exitX=0.5;exitY=1;exitDx=0;exitDy=0;entryX=0.5;entryY=0;entryDx=0;entryDy=0;" edge="1" parent="1" source="EtVTQAS7JojA4WmKUe1Q-17" target="EtVTQAS7JojA4WmKUe1Q-28">
          <mxGeometry relative="1" as="geometry" />
        </mxCell>
        <mxCell id="EtVTQAS7JojA4WmKUe1Q-17" value="Masukkan nama Kategori" style="rounded=1;whiteSpace=wrap;html=1;" vertex="1" parent="1">
          <mxGeometry x="1890" y="250" width="120" height="60" as="geometry" />
        </mxCell>
        <mxCell id="EtVTQAS7JojA4WmKUe1Q-38" style="edgeStyle=orthogonalEdgeStyle;rounded=0;orthogonalLoop=1;jettySize=auto;html=1;entryX=0.5;entryY=0;entryDx=0;entryDy=0;" edge="1" parent="1" source="EtVTQAS7JojA4WmKUe1Q-21" target="EtVTQAS7JojA4WmKUe1Q-36">
          <mxGeometry relative="1" as="geometry" />
        </mxCell>
        <mxCell id="EtVTQAS7JojA4WmKUe1Q-39" style="edgeStyle=orthogonalEdgeStyle;rounded=0;orthogonalLoop=1;jettySize=auto;html=1;exitX=0.5;exitY=1;exitDx=0;exitDy=0;" edge="1" parent="1" source="EtVTQAS7JojA4WmKUe1Q-21" target="EtVTQAS7JojA4WmKUe1Q-37">
          <mxGeometry relative="1" as="geometry" />
        </mxCell>
        <mxCell id="EtVTQAS7JojA4WmKUe1Q-21" value="Masukkan Nama Kategori" style="rounded=1;whiteSpace=wrap;html=1;" vertex="1" parent="1">
          <mxGeometry x="1890" y="540" width="120" height="60" as="geometry" />
        </mxCell>
        <mxCell id="EtVTQAS7JojA4WmKUe1Q-42" style="edgeStyle=orthogonalEdgeStyle;rounded=0;orthogonalLoop=1;jettySize=auto;html=1;entryX=0.5;entryY=0;entryDx=0;entryDy=0;" edge="1" parent="1" source="EtVTQAS7JojA4WmKUe1Q-23" target="EtVTQAS7JojA4WmKUe1Q-40">
          <mxGeometry relative="1" as="geometry" />
        </mxCell>
        <mxCell id="EtVTQAS7JojA4WmKUe1Q-43" style="edgeStyle=orthogonalEdgeStyle;rounded=0;orthogonalLoop=1;jettySize=auto;html=1;exitX=0.5;exitY=1;exitDx=0;exitDy=0;entryX=0.5;entryY=0;entryDx=0;entryDy=0;" edge="1" parent="1" source="EtVTQAS7JojA4WmKUe1Q-23" target="EtVTQAS7JojA4WmKUe1Q-41">
          <mxGeometry relative="1" as="geometry" />
        </mxCell>
        <mxCell id="EtVTQAS7JojA4WmKUe1Q-23" value="Masukkan Nama Kategori" style="rounded=1;whiteSpace=wrap;html=1;" vertex="1" parent="1">
          <mxGeometry x="1890" y="830" width="120" height="60" as="geometry" />
        </mxCell>
        <mxCell id="EtVTQAS7JojA4WmKUe1Q-25" value="Nama Sesuai" style="rounded=1;whiteSpace=wrap;html=1;" vertex="1" parent="1">
          <mxGeometry x="1890" y="400" width="120" height="60" as="geometry" />
        </mxCell>
        <mxCell id="EtVTQAS7JojA4WmKUe1Q-28" value="Nama tidak Sesuai" style="rounded=1;whiteSpace=wrap;html=1;" vertex="1" parent="1">
          <mxGeometry x="2080" y="400" width="120" height="60" as="geometry" />
        </mxCell>
        <mxCell id="EtVTQAS7JojA4WmKUe1Q-34" value="True" style="text;html=1;align=center;verticalAlign=middle;resizable=0;points=[];autosize=1;strokeColor=none;fillColor=none;" vertex="1" parent="1">
          <mxGeometry x="1905" y="340" width="50" height="30" as="geometry" />
        </mxCell>
        <mxCell id="EtVTQAS7JojA4WmKUe1Q-35" value="False" style="text;html=1;align=center;verticalAlign=middle;resizable=0;points=[];autosize=1;strokeColor=none;fillColor=none;" vertex="1" parent="1">
          <mxGeometry x="2015" y="320" width="50" height="30" as="geometry" />
        </mxCell>
        <mxCell id="EtVTQAS7JojA4WmKUe1Q-36" value="Nama Sesuai" style="rounded=1;whiteSpace=wrap;html=1;" vertex="1" parent="1">
          <mxGeometry x="1890" y="680" width="120" height="60" as="geometry" />
        </mxCell>
        <mxCell id="EtVTQAS7JojA4WmKUe1Q-37" value="Nama tidak Sesuai" style="rounded=1;whiteSpace=wrap;html=1;" vertex="1" parent="1">
          <mxGeometry x="2080" y="680" width="120" height="60" as="geometry" />
        </mxCell>
        <mxCell id="EtVTQAS7JojA4WmKUe1Q-40" value="Nama Sesuai" style="rounded=1;whiteSpace=wrap;html=1;" vertex="1" parent="1">
          <mxGeometry x="1890" y="980" width="120" height="60" as="geometry" />
        </mxCell>
        <mxCell id="EtVTQAS7JojA4WmKUe1Q-41" value="Nama tidak Sesuai" style="rounded=1;whiteSpace=wrap;html=1;" vertex="1" parent="1">
          <mxGeometry x="2090" y="980" width="120" height="60" as="geometry" />
        </mxCell>
        <mxCell id="EtVTQAS7JojA4WmKUe1Q-44" value="True" style="text;html=1;align=center;verticalAlign=middle;resizable=0;points=[];autosize=1;strokeColor=none;fillColor=none;" vertex="1" parent="1">
          <mxGeometry x="1905" y="626" width="50" height="30" as="geometry" />
        </mxCell>
        <mxCell id="EtVTQAS7JojA4WmKUe1Q-45" value="False" style="text;html=1;align=center;verticalAlign=middle;resizable=0;points=[];autosize=1;strokeColor=none;fillColor=none;" vertex="1" parent="1">
          <mxGeometry x="2015" y="610" width="50" height="30" as="geometry" />
        </mxCell>
        <mxCell id="EtVTQAS7JojA4WmKUe1Q-46" value="True" style="text;html=1;align=center;verticalAlign=middle;resizable=0;points=[];autosize=1;strokeColor=none;fillColor=none;" vertex="1" parent="1">
          <mxGeometry x="1905" y="916" width="50" height="30" as="geometry" />
        </mxCell>
        <mxCell id="EtVTQAS7JojA4WmKUe1Q-47" value="False" style="text;html=1;align=center;verticalAlign=middle;resizable=0;points=[];autosize=1;strokeColor=none;fillColor=none;" vertex="1" parent="1">
          <mxGeometry x="2025" y="900" width="50" height="30" as="geometry" />
        </mxCell>
      </root>
    </mxGraphModel>
  </diagram>
  <diagram id="Wrrrcd5VVsIqNYdw_qv9" name="Halaman-2">
    <mxGraphModel dx="1050" dy="557" grid="1" gridSize="10" guides="1" tooltips="1" connect="1" arrows="1" fold="1" page="1" pageScale="1" pageWidth="827" pageHeight="1169" math="0" shadow="0">
      <root>
        <mxCell id="0" />
        <mxCell id="1" parent="0" />
      </root>
    </mxGraphModel>
  </diagram>
</mxfile>
